<svg version="1.1" xmlns="http://www.w3.org/2000/svg" xmlns:xlink="http://www.w3.org/1999/xlink" width="311.75002" height="196.06258" viewBox="0,0,311.75002,196.06258"><g transform="translate(-42.25,-56.453)"><g data-paper-data="{&quot;isPaintingLayer&quot;:true}" fill="#ffffff" fill-rule="nonzero" stroke="none" stroke-linecap="butt" stroke-linejoin="miter" stroke-miterlimit="10" stroke-dasharray="" stroke-dashoffset="0" style="mix-blend-mode: normal"><path d="M281.73607,251.11803c-1.11803,2.23607 -3.3541,1.11803 -3.3541,1.11803l-1.67254,-0.86436c-7.60376,-2.53567 -15.3648,-4.86456 -23.15142,-6.75749c-6.04888,-1.47048 -11.79967,-3.12827 -18.05801,-3.11421c0,0 -2.5,0 -2.5,-2.5c0,-0.75405 0.22744,-1.28066 0.54511,-1.64844c-1.54511,-0.53763 -1.54511,-2.35156 -1.54511,-2.35156c0,-7 -0.00182,-14 0,-21c0.00171,-6.5873 -0.12402,-12.6774 -2.69157,-18.7736l-1.22451,-4.58407c0,0 -0.64233,-2.41607 1.77375,-3.0584c2.41607,-0.64233 3.0584,1.77375 3.0584,1.77375l1.12768,4.26353c4.94731,12.05674 3.10804,26.87096 2.96476,39.88307c2.3898,-0.9406 5.03394,-1.32821 7.22809,-2.66155c0.91968,-0.55887 1.48525,-1.57646 2.36058,-2.20251c2.98096,-2.13205 5.97999,-3.45368 9.24142,-5.06616c5.71033,-2.28383 11.25603,-4.9759 16.32805,-8.50191c1.44331,-1.00338 2.62948,-2.36684 4.13862,-3.26819c0.92519,-0.55258 2.11337,-0.52457 3.06338,-1.03331c2.67028,-1.42997 4.89828,-3.56597 7.3936,-5.28311c4.08553,-2.81145 8.18742,-5.22115 12.48292,-7.64979c2.77094,-1.56667 4.79732,-3.86545 7.45324,-5.61938c4.09544,-2.70457 8.47911,-5.21134 12.40311,-8.15752c1.37044,-1.02894 6.35766,-5.58871 7.65194,-6.51841c1.89943,-1.36438 4.1171,-2.44517 5.54741,-4.29547c5.75051,-7.18814 10.63188,-14.31474 13.83531,-23.06084c2.31874,-6.33069 2.86708,-13.52453 2.86381,-20.1861c-0.00718,-14.63756 -2.07028,-28.19276 -5.95614,-42.30867c-1.52278,-2.71755 -2.76041,-5.61038 -4.53052,-8.1737c-2.94358,-4.26264 -8.42618,-8.40211 -12.52132,-11.52363c-2.10755,-1.60649 -3.991,-3.63831 -6.42926,-4.67632c-1.17077,-0.49842 -2.5414,-0.22843 -3.78438,-0.50073c-4.93284,-1.08064 -7.45486,-1.30272 -12.57654,-1.27983c-6.33774,0.02833 -13.28181,-0.5254 -19.54238,0.62779c-3.28355,0.60482 -6.45571,1.74864 -9.74847,2.30109c0,0 -2.46598,0.41099 -2.87698,-2.05499c-0.411,-2.46599 2.05499,-2.87698 2.05499,-2.87698c3.26853,-0.54087 6.41217,-1.69691 9.67203,-2.28774c6.56939,-1.19067 13.77085,-0.6794 20.41847,-0.70911c5.28702,-0.02363 8.52672,0.2388 13.65735,1.3931c1.51592,0.34105 3.17249,0.13931 4.60038,0.75207c0.13002,0.0558 6.65752,4.62582 7.57074,5.32368c4.47122,3.41681 10.21321,7.83061 13.47868,12.47637c0.30794,0.4381 4.90645,8.80902 5.18234,9.30944c4.16026,14.71471 6.33828,28.92117 6.33101,44.20819c-0.00344,7.22287 -0.63761,14.95076 -3.13619,21.8139c-3.3808,9.28638 -8.55373,16.92546 -14.65859,24.55653c-1.76929,2.15741 -4.26842,3.60311 -6.53362,5.23211c-2.69216,1.93604 -4.9162,4.46573 -7.56798,6.45673c-4.76492,3.57756 -10.40031,6.12803 -15.02436,9.87876c-4.25113,3.44824 -8.77834,5.86291 -13.35275,8.91559c-3.98251,2.65768 -7.89542,6.09934 -12.09517,8.37574c-0.90601,0.49109 -2.05184,0.43831 -2.93662,0.96669c-1.35273,0.80784 -2.37812,2.0769 -3.67007,2.97876c-5.31594,3.71089 -11.1544,6.56727 -17.14803,8.96504c-2.70756,1.33845 -5.82275,2.73677 -8.29637,4.51301c-1.02054,0.73282 -1.73664,1.86281 -2.81686,2.50441c-1.32805,0.7888 -2.78836,1.30026 -4.26851,1.77232c12.10264,1.40102 24.57945,5.96149 35.79569,9.69869l2.32746,1.13564c0,0 2.23607,1.11803 1.11803,3.3541z" stroke-width="0.5"/><text transform="translate(42.5,161) scale(0.5,0.5)" font-size="40" xml:space="preserve" fill="#ffffff" fill-rule="nonzero" stroke="none" stroke-width="1" stroke-linecap="butt" stroke-linejoin="miter" stroke-miterlimit="10" stroke-dasharray="" stroke-dashoffset="0" font-family="Sans Serif" font-weight="normal" text-anchor="start" style="mix-blend-mode: normal"><tspan x="0" dy="0">Click the button!</tspan></text></g></g></svg>